<?xml version="1.0" encoding="utf-8"?><!-- Uploaded to: SVG Repo, www.svgrepo.com, Generator: SVG Repo Mixer Tools -->
<svg width="800px" height="800px" viewBox="-2.5 0 150 150" fill="none" xmlns="http://www.w3.org/2000/svg">
<path d="M60.4167 125H48.3333V106.25H60.4167V125ZM45.8502 36.525L12.0833 53.125L36.25 72.2687L45.8502 36.525Z" fill="#FBC02D"/>
<path d="M103.198 90.3688L132.917 118.75H108.75L93.1867 102.65C85.9004 108.8 76.5963 112.5 66.4583 112.5C43.1013 112.5 24.1667 92.9125 24.1667 68.75C24.1667 48.9312 36.9085 30.1187 54.375 23.9812V43.75L103.198 90.3688Z" fill="#BF360C"/>
<path opacity="0.3" d="M100.678 87.9687C96.0081 91.025 90.5162 92.8625 84.5833 92.8625C67.8962 92.8625 54.375 78.875 54.375 61.6125V43.75L100.678 87.9687Z" fill="#000000"/>
<path opacity="0.5" d="M48.3333 59.375C48.3333 68.0062 41.5727 75 33.2292 75C29.9183 75 26.8794 73.8687 24.3902 72C24.3117 70.9187 24.1667 69.8562 24.1667 68.75C24.1667 59.9125 26.7404 51.1375 31.1206 43.7625C31.8094 43.6687 32.5163 43.75 33.2292 43.75C41.5727 43.75 48.3333 50.7437 48.3333 59.375Z" fill="#000000"/>
</svg>