<?xml version="1.0" encoding="utf-8"?><!-- Uploaded to: SVG Repo, www.svgrepo.com, Generator: SVG Repo Mixer Tools -->
<svg width="800px" height="800px" viewBox="-3 0 150 150" fill="none" xmlns="http://www.w3.org/2000/svg">
<path d="M126 37.5V50C119.382 50 114 55.6063 114 62.5V112.5C114 126.288 103.236 137.5 90 137.5H36V62.5V56.25H24L18 43.75L28.044 29.975L28.056 30.0063C30.144 27.6688 32.88 25.975 36 25.3125V12.5C36 12.5 60 18.75 60 37.5C60 41.75 60.054 54.6688 60.09 62.5H66C79.254 62.5 90 73.6938 90 87.5V125C96.618 125 102 119.394 102 112.5V62.5C102 48.7125 112.764 37.5 126 37.5Z" fill="#BDBDBD"/>
<path opacity="0.3" d="M102 62.5V112.5C102 119.375 96.6 125 90 125V137.5C90.114 137.5 90.36 137.5 90.6 137.437C91.56 137.375 93.426 137.063 95.946 136.688C106.32 133.938 114 124.188 114 112.5V62.5C114 55.625 119.4 50 126 50V37.5C112.74 37.5 102 48.6875 102 62.5ZM48 137.5H60C60 130.625 65.4 125 72 125V112.5C58.74 112.5 48 123.687 48 137.5Z" fill="#000000"/>
</svg>