<?xml version="1.0" encoding="utf-8"?><!-- Uploaded to: SVG Repo, www.svgrepo.com, Generator: SVG Repo Mixer Tools -->
<svg width="800px" height="800px" viewBox="0 0 144 144" fill="none" xmlns="http://www.w3.org/2000/svg">
<path d="M132 69C132 82.992 125.616 95.49 115.596 103.746C105.9 113.508 92.682 120 78 120C54.186 120 44.964 113.358 37.83 106.29C37.794 106.254 37.752 106.218 37.716 106.182C37.698 106.164 37.674 106.146 37.656 106.122L37.662 106.104C36.648 105.03 36 103.596 36 102C36 98.688 38.688 96 42 96H54.876C50.394 88.476 48 79.146 48 69C48 67.968 48.06 66.96 48.108 65.946L48 66C30 66 18 42 18 30C18 26.688 20.688 24 24 24C24 24 85.938 24 87 24C110.868 24 130.344 42.594 131.85 66.084C131.85 66.084 132 68.472 132 69Z" fill="#8D6E63"/>
<path opacity="0.3" d="M40.5 39C40.5 36.516 42.516 34.5 45 34.5C47.484 34.5 49.5 36.516 49.5 39C49.5 41.484 47.484 43.5 45 43.5C42.516 43.5 40.5 41.484 40.5 39ZM84 96C84.042 92.922 85.11 78 102 78V66C78.27 66 72 85.626 72 96H42C38.7 96 36 98.7 36 102C36 103.614 36.66 105 37.68 106.08V106.146C37.68 106.146 37.68 106.146 37.74 106.206L37.8 106.266C44.94 113.34 54.18 120 78 120C92.7 120 105.9 113.52 115.614 103.74C118.38 101.46 120.834 98.88 123 96H84ZM24 24C20.7 24 18 26.7 18 30C18 31.68 18.24 33.6 18.72 35.64C19.44 35.88 20.22 36 21 36C25.98 36 30 31.98 30 27C30 25.92 29.82 24.96 29.46 24C26.1 24 24 24 24 24Z" fill="#000000"/>
</svg>