<?xml version="1.0" encoding="utf-8"?><!-- Uploaded to: SVG Repo, www.svgrepo.com, Generator: SVG Repo Mixer Tools -->
<svg width="800px" height="800px" viewBox="0 -0.5 145 145" fill="none" xmlns="http://www.w3.org/2000/svg">
<path d="M66.1019 94.092C64.67 94.74 63.1717 95.262 61.5887 95.58L72.5785 126H59.74L48.0977 93.774C42.3158 90.942 37.99 85.632 36.6729 79.182L30.2083 54H12.0833V36H18.4271C19.8287 29.154 25.9187 24 33.2291 24C38.0987 24 42.3823 26.328 45.1433 29.88L60.6281 54.324C61.4135 54.444 109.372 66.462 109.372 66.462C109.372 66.462 111.62 67.206 112.659 67.746L123.673 56.82L130.083 63.186L119.075 74.118C120.163 76.182 120.833 78.504 120.833 81V103.812L132.899 126H119.166L96.3766 84.096L66.1019 94.092Z" fill="#6D4C41"/>
<path opacity="0.3" d="M30.2083 54H12.0833V36H18.4271L30.2083 54Z" fill="#000000"/>
<path opacity="0.4" d="M48.0977 93.774C42.3158 90.942 37.99 85.632 36.6729 79.182L30.2083 54C30.2083 54 45.1433 54 45.1433 29.88L45.2521 29.814L60.6281 54.324C61.4196 54.444 48.0977 93.774 48.0977 93.774ZM51.0702 102L59.74 126H72.5785L63.9087 102H51.0702ZM112.641 114L119.166 126H132.899L126.374 114H112.641Z" fill="white"/>
</svg>