<?xml version="1.0" encoding="utf-8"?><!-- Uploaded to: SVG Repo, www.svgrepo.com, Generator: SVG Repo Mixer Tools -->
<svg width="800px" height="800px" viewBox="0 0 144 144" fill="none" xmlns="http://www.w3.org/2000/svg">
<path d="M132 48V96C132 98.274 130.716 100.35 128.682 101.37C127.836 101.79 126.912 102 126 102C124.728 102 123.456 101.598 122.4 100.8L102.504 85.878L114 132L43.5 108.432C22.878 102.186 12 72 12 72C12 72 22.878 42.72 43.5 35.778L114.114 12L102.552 58.086L122.4 43.2C124.218 41.838 126.648 41.616 128.682 42.63C130.716 43.65 132 45.726 132 48Z" fill="#FF8F00"/>
<path opacity="0.4" d="M102.54 58.08L114.12 12L72 26.16V33.24L97.14 30.36L86.64 72.36L97.074 113.7L72 110.82V117.966L114 132L102.48 85.86L102.54 58.08ZM48 109.92L63 114.96V109.8L48 108.06V109.92ZM48 36L63 34.26V29.22L48 34.26V36Z" fill="white"/>
<path opacity="0.3" d="M33 69C33 72.312 30.312 75 27 75C23.688 75 21 72.312 21 69C21 65.688 23.688 63 27 63C30.312 63 33 65.688 33 69ZM48 36V34.26L43.5 35.778C41.94 36.3 40.446 36.966 39 37.722V106.614C40.446 107.334 41.94 107.958 43.5 108.432L48 109.938V109.92V108.06V36ZM72 110.82V33.24V26.178L63 29.208V29.22V34.26V109.8V114.954L72 117.96V110.82ZM102.54 58.152L102.48 85.782L102.504 85.878L114 94.5V49.5L102.552 58.086L102.54 58.152Z" fill="#000000"/>
</svg>