<?xml version="1.0" encoding="UTF-8" standalone="no"?>
<!-- Created with Inkscape (http://www.inkscape.org/) -->

<svg
   xmlns:dc="http://purl.org/dc/elements/1.1/"
   xmlns:cc="http://creativecommons.org/ns#"
   xmlns:rdf="http://www.w3.org/1999/02/22-rdf-syntax-ns#"
   xmlns:svg="http://www.w3.org/2000/svg"
   xmlns="http://www.w3.org/2000/svg"
   xmlns:sodipodi="http://sodipodi.sourceforge.net/DTD/sodipodi-0.dtd"
   xmlns:inkscape="http://www.inkscape.org/namespaces/inkscape"
   width="24pc"
   height="23.997972pc"
   viewBox="0 0 359.99999 359.9696"
   id="svg5027"
   version="1.1"
   inkscape:version="0.91 r13725"
   sodipodi:docname="new-instagram-logo-glyph.svg">
  <defs
     id="defs5029" />
  <sodipodi:namedview
     id="base"
     pagecolor="#ffffff"
     bordercolor="#666666"
     borderopacity="1.0"
     inkscape:pageopacity="0.0"
     inkscape:pageshadow="2"
     inkscape:zoom="1"
     inkscape:cx="194.97938"
     inkscape:cy="26.738051"
     inkscape:document-units="px"
     inkscape:current-layer="layer1"
     showgrid="false"
     units="pc"
     fit-margin-top="2"
     fit-margin-left="2"
     fit-margin-right="2"
     fit-margin-bottom="2"
     inkscape:window-width="1920"
     inkscape:window-height="1057"
     inkscape:window-x="-8"
     inkscape:window-y="-8"
     inkscape:window-maximized="1" />
  <metadata
     id="metadata5032">
    <rdf:RDF>
      <cc:Work
         rdf:about="">
        <dc:format>image/svg+xml</dc:format>
        <dc:type
           rdf:resource="http://purl.org/dc/dcmitype/StillImage" />
        <dc:title></dc:title>
      </cc:Work>
    </rdf:RDF>
  </metadata>
  <g
     inkscape:label="Camada 1"
     inkscape:groupmode="layer"
     id="layer1"
     transform="translate(-77.12909,-99.75057)">
    <path
       inkscape:connector-curvature="0"
       style="fill:#000000;fill-opacity:1;fill-rule:nonzero;stroke:none"
       d="m 257.12909,129.76098 c -40.73362,0 -45.84008,0.25899 -61.83741,0.91733 -15.96445,0.7292 -26.846,3.22727 -36.38561,6.93669 -9.8635,3.83171 -18.26206,8.98306 -26.60017,17.32165 -8.33835,8.33859 -13.44169,16.69125 -17.27412,26.55409 -3.70877,9.54051 -6.25479,20.46653 -6.98302,36.43098 -0.73154,15.99732 -0.91968,21.10396 -0.91968,61.83716 0,40.73554 0.18808,45.83984 0.91968,61.83717 0.72919,15.96445 3.27425,26.84576 6.98302,36.38633 3.83243,9.86278 8.93577,18.21549 17.27412,26.55403 8.33811,8.33859 16.73667,13.48525 26.60017,17.3193 9.53961,3.70708 20.42116,6.25455 36.38561,6.98374 15.99733,0.7292 21.10379,0.87029 61.83741,0.87029 40.73362,0 45.83984,-0.23496 61.8374,-0.87029 15.96422,-0.72919 26.89185,-3.27666 36.43147,-6.98374 9.8635,-3.83405 18.21621,-8.98071 26.55432,-17.3193 8.33835,-8.33854 13.44145,-16.69125 17.27388,-26.55403 3.70876,-9.54057 6.25503,-20.42188 6.98326,-36.38633 0.73154,-15.99733 0.91968,-21.10163 0.91968,-61.83717 0,-40.7332 -0.18808,-45.83984 -0.91968,-61.83716 -0.7292,-15.96445 -3.2745,-26.89047 -6.98326,-36.43098 -3.83243,-9.86284 -8.93553,-18.2155 -17.27388,-26.55409 -8.33811,-8.33859 -16.69082,-13.48994 -26.55432,-17.32165 -9.53962,-3.70942 -20.46725,-6.20749 -36.43147,-6.93669 -15.99732,-0.72919 -21.10378,-0.91733 -61.8374,-0.91733 z m 0,27.01275 c 40.04775,0 44.78087,0.23495 60.59684,0.87028 14.623,0.65865 22.60141,3.13785 27.88658,5.19137 7.00117,2.72149 11.98006,5.96281 17.22809,11.21061 5.24894,5.24779 8.48978,10.2274 11.20964,17.22754 2.05353,5.28542 4.52401,13.26413 5.19155,27.88544 0.71982,15.81622 0.87269,20.5512 0.87269,60.59757 0,40.04865 -0.16464,44.78369 -0.87269,60.59756 -0.66802,14.62366 -3.13802,22.55533 -5.19155,27.84074 -2.71986,7.00014 -5.9607,12.02211 -11.20964,17.27225 -5.24803,5.2478 -10.22692,8.48912 -17.22809,11.2106 -5.28517,2.04643 -13.26358,4.48099 -27.88658,5.14667 -15.81363,0.72913 -20.54555,0.87028 -60.59684,0.87028 -40.0513,0 -44.78322,-0.23495 -60.59684,-0.87028 -14.62301,-0.65865 -22.55557,-3.09321 -27.84074,-5.14667 -7.0011,-2.72148 -12.0259,-5.9628 -17.27394,-11.2106 -5.24773,-5.25014 -8.48863,-10.27211 -11.20964,-17.27225 -2.05352,-5.28541 -4.47792,-13.21708 -5.14546,-27.84074 -0.71982,-15.81387 -0.87269,-20.54891 -0.87269,-60.59756 0,-40.04637 0.16465,-44.78135 0.87269,-60.59757 0.66803,-14.62131 3.09194,-22.60002 5.14546,-27.88544 2.72101,-7.00014 5.96191,-11.97975 11.20964,-17.22754 5.24804,-5.2478 10.27284,-8.48912 17.27394,-11.21061 5.28517,-2.04643 13.21773,-4.52334 27.84074,-5.19137 15.81597,-0.72913 20.54909,-0.87028 60.59684,-0.87028 z m 80.07621,24.90046 c -9.93951,0 -18.0092,8.06807 -18.0092,18.00848 0,9.94042 8.06969,18.00854 18.0092,18.00854 9.94066,0 18.00896,-8.06812 18.00896,-18.00854 0,-9.94041 -8.0683,-18.00848 -18.00896,-18.00848 z m -80.07621,21.04051 c -42.53614,0 -76.99809,34.50924 -76.99809,77.04418 0,42.53735 34.46195,76.99713 76.99809,76.99713 42.53614,0 77.04394,-34.45978 77.04394,-76.99713 0,-42.53494 -34.5078,-77.04418 -77.04394,-77.04418 z m 0,27.0598 c 27.61161,0 49.98438,22.37415 49.98438,49.98438 0,27.61257 -22.37277,49.98438 -49.98438,49.98438 -27.61161,0 -49.98444,-22.37181 -49.98444,-49.98438 0,-27.61023 22.37283,-49.98438 49.98444,-49.98438 z"
       id="path4642" />
  </g>
</svg>
